<?xml version="1.0" encoding="UTF-8" standalone="no"?><svg xmlns="http://www.w3.org/2000/svg" xmlns:xlink="http://www.w3.org/1999/xlink" contentScriptType="application/ecmascript" contentStyleType="text/css" height="360px" preserveAspectRatio="none" style="width:1094px;height:360px;" version="1.1" viewBox="0 0 1094 360" width="1094px" zoomAndPan="magnify"><defs><filter height="300%" id="f1nrouyjo2xvf1" width="300%" x="-1" y="-1"><feGaussianBlur result="blurOut" stdDeviation="2.0"/><feColorMatrix in="blurOut" result="blurOut2" type="matrix" values="0 0 0 0 0 0 0 0 0 0 0 0 0 0 0 0 0 0 .4 0"/><feOffset dx="4.0" dy="4.0" in="blurOut2" result="blurOut3"/><feBlend in="SourceGraphic" in2="blurOut3" mode="normal"/></filter></defs><g><!--class Object--><rect fill="#FEFECE" filter="url(#f1nrouyjo2xvf1)" height="73.6094" id="Object" style="stroke: #A80036; stroke-width: 1.5;" width="117" x="158" y="8"/><ellipse cx="193.7" cy="24" fill="#A9DCDF" rx="11" ry="11" style="stroke: #A80036; stroke-width: 1.0;"/><path d="M193.8094,19.3438 L192.6531,24.4219 L194.9813,24.4219 L193.8094,19.3438 Z M192.325,17.1094 L195.3094,17.1094 L198.6688,29.5 L196.2156,29.5 L195.45,26.4375 L192.1688,26.4375 L191.4188,29.5 L188.9813,29.5 L192.325,17.1094 Z "/><text fill="#000000" font-family="sans-serif" font-size="12" font-style="italic" lengthAdjust="spacingAndGlyphs" textLength="39" x="212.3" y="28.1543">Object</text><line style="stroke: #A80036; stroke-width: 1.5;" x1="159" x2="274" y1="40" y2="40"/><line style="stroke: #A80036; stroke-width: 1.5;" x1="159" x2="274" y1="48" y2="48"/><ellipse cx="169" cy="59.9023" fill="#84BE84" rx="3" ry="3" style="stroke: #038048; stroke-width: 1.0;"/><text fill="#000000" font-family="sans-serif" font-size="11" lengthAdjust="spacingAndGlyphs" textLength="58" x="178" y="62.2104">hit() : bool</text><ellipse cx="169" cy="72.707" fill="#84BE84" rx="3" ry="3" style="stroke: #038048; stroke-width: 1.0;"/><text fill="#000000" font-family="sans-serif" font-size="11" lengthAdjust="spacingAndGlyphs" textLength="91" x="178" y="75.0151">getBBox() : bool</text><!--class World--><rect fill="#FEFECE" filter="url(#f1nrouyjo2xvf1)" height="86.4141" id="World" style="stroke: #A80036; stroke-width: 1.5;" width="117" x="6" y="148.5"/><ellipse cx="43.5" cy="164.5" fill="#ADD1B2" rx="11" ry="11" style="stroke: #A80036; stroke-width: 1.0;"/><path d="M46.4688,170.1406 Q45.8906,170.4375 45.25,170.5781 Q44.6094,170.7344 43.9063,170.7344 Q41.4063,170.7344 40.0781,169.0938 Q38.7656,167.4375 38.7656,164.3125 Q38.7656,161.1875 40.0781,159.5313 Q41.4063,157.875 43.9063,157.875 Q44.6094,157.875 45.25,158.0313 Q45.9063,158.1875 46.4688,158.4844 L46.4688,161.2031 Q45.8438,160.625 45.25,160.3594 Q44.6563,160.0781 44.0313,160.0781 Q42.6875,160.0781 42,161.1563 Q41.3125,162.2188 41.3125,164.3125 Q41.3125,166.4063 42,167.4844 Q42.6875,168.5469 44.0313,168.5469 Q44.6563,168.5469 45.25,168.2813 Q45.8438,168 46.4688,167.4219 L46.4688,170.1406 Z "/><text fill="#000000" font-family="sans-serif" font-size="12" lengthAdjust="spacingAndGlyphs" textLength="35" x="62.5" y="168.6543">World</text><line style="stroke: #A80036; stroke-width: 1.5;" x1="7" x2="122" y1="180.5" y2="180.5"/><text fill="#000000" font-family="sans-serif" font-size="11" lengthAdjust="spacingAndGlyphs" textLength="67" x="12" y="194.7104">AABB* bbox</text><line style="stroke: #A80036; stroke-width: 1.5;" x1="7" x2="122" y1="201.3047" y2="201.3047"/><ellipse cx="17" cy="213.207" fill="#84BE84" rx="3" ry="3" style="stroke: #038048; stroke-width: 1.0;"/><text fill="#000000" font-family="sans-serif" font-size="11" lengthAdjust="spacingAndGlyphs" textLength="58" x="26" y="215.5151">hit() : bool</text><ellipse cx="17" cy="226.0117" fill="#84BE84" rx="3" ry="3" style="stroke: #038048; stroke-width: 1.0;"/><text fill="#000000" font-family="sans-serif" font-size="11" lengthAdjust="spacingAndGlyphs" textLength="91" x="26" y="228.3198">getBBox() : bool</text><!--class Mesh--><rect fill="#FEFECE" filter="url(#f1nrouyjo2xvf1)" height="99.2188" id="Mesh" style="stroke: #A80036; stroke-width: 1.5;" width="117" x="158" y="142"/><ellipse cx="196.4" cy="158" fill="#ADD1B2" rx="11" ry="11" style="stroke: #A80036; stroke-width: 1.0;"/><path d="M199.3688,163.6406 Q198.7906,163.9375 198.15,164.0781 Q197.5094,164.2344 196.8063,164.2344 Q194.3063,164.2344 192.9781,162.5938 Q191.6656,160.9375 191.6656,157.8125 Q191.6656,154.6875 192.9781,153.0313 Q194.3063,151.375 196.8063,151.375 Q197.5094,151.375 198.15,151.5313 Q198.8063,151.6875 199.3688,151.9844 L199.3688,154.7031 Q198.7438,154.125 198.15,153.8594 Q197.5563,153.5781 196.9313,153.5781 Q195.5875,153.5781 194.9,154.6563 Q194.2125,155.7188 194.2125,157.8125 Q194.2125,159.9063 194.9,160.9844 Q195.5875,162.0469 196.9313,162.0469 Q197.5563,162.0469 198.15,161.7813 Q198.7438,161.5 199.3688,160.9219 L199.3688,163.6406 Z "/><text fill="#000000" font-family="sans-serif" font-size="12" lengthAdjust="spacingAndGlyphs" textLength="33" x="215.6" y="162.1543">Mesh</text><line style="stroke: #A80036; stroke-width: 1.5;" x1="159" x2="274" y1="174" y2="174"/><text fill="#000000" font-family="sans-serif" font-size="11" lengthAdjust="spacingAndGlyphs" textLength="102" x="164" y="188.2104">Material* material</text><text fill="#000000" font-family="sans-serif" font-size="11" lengthAdjust="spacingAndGlyphs" textLength="67" x="164" y="201.0151">AABB* bbox</text><line style="stroke: #A80036; stroke-width: 1.5;" x1="159" x2="274" y1="207.6094" y2="207.6094"/><ellipse cx="169" cy="219.5117" fill="#84BE84" rx="3" ry="3" style="stroke: #038048; stroke-width: 1.0;"/><text fill="#000000" font-family="sans-serif" font-size="11" lengthAdjust="spacingAndGlyphs" textLength="58" x="178" y="221.8198">hit() : bool</text><ellipse cx="169" cy="232.3164" fill="#84BE84" rx="3" ry="3" style="stroke: #038048; stroke-width: 1.0;"/><text fill="#000000" font-family="sans-serif" font-size="11" lengthAdjust="spacingAndGlyphs" textLength="91" x="178" y="234.6245">getBBox() : bool</text><!--class Sphere--><rect fill="#FEFECE" filter="url(#f1nrouyjo2xvf1)" height="99.2188" id="Sphere" style="stroke: #A80036; stroke-width: 1.5;" width="117" x="310" y="142"/><ellipse cx="343" cy="158" fill="#ADD1B2" rx="11" ry="11" style="stroke: #A80036; stroke-width: 1.0;"/><path d="M345.9688,163.6406 Q345.3906,163.9375 344.75,164.0781 Q344.1094,164.2344 343.4063,164.2344 Q340.9063,164.2344 339.5781,162.5938 Q338.2656,160.9375 338.2656,157.8125 Q338.2656,154.6875 339.5781,153.0313 Q340.9063,151.375 343.4063,151.375 Q344.1094,151.375 344.75,151.5313 Q345.4063,151.6875 345.9688,151.9844 L345.9688,154.7031 Q345.3438,154.125 344.75,153.8594 Q344.1563,153.5781 343.5313,153.5781 Q342.1875,153.5781 341.5,154.6563 Q340.8125,155.7188 340.8125,157.8125 Q340.8125,159.9063 341.5,160.9844 Q342.1875,162.0469 343.5313,162.0469 Q344.1563,162.0469 344.75,161.7813 Q345.3438,161.5 345.9688,160.9219 L345.9688,163.6406 Z "/><text fill="#000000" font-family="sans-serif" font-size="12" lengthAdjust="spacingAndGlyphs" textLength="45" x="361" y="162.1543">Sphere</text><line style="stroke: #A80036; stroke-width: 1.5;" x1="311" x2="426" y1="174" y2="174"/><text fill="#000000" font-family="sans-serif" font-size="11" lengthAdjust="spacingAndGlyphs" textLength="102" x="316" y="188.2104">Material* material</text><text fill="#000000" font-family="sans-serif" font-size="11" lengthAdjust="spacingAndGlyphs" textLength="67" x="316" y="201.0151">AABB* bbox</text><line style="stroke: #A80036; stroke-width: 1.5;" x1="311" x2="426" y1="207.6094" y2="207.6094"/><ellipse cx="321" cy="219.5117" fill="#84BE84" rx="3" ry="3" style="stroke: #038048; stroke-width: 1.0;"/><text fill="#000000" font-family="sans-serif" font-size="11" lengthAdjust="spacingAndGlyphs" textLength="58" x="330" y="221.8198">hit() : bool</text><ellipse cx="321" cy="232.3164" fill="#84BE84" rx="3" ry="3" style="stroke: #038048; stroke-width: 1.0;"/><text fill="#000000" font-family="sans-serif" font-size="11" lengthAdjust="spacingAndGlyphs" textLength="91" x="330" y="234.6245">getBBox() : bool</text><!--class Material--><rect fill="#FEFECE" filter="url(#f1nrouyjo2xvf1)" height="60.8047" id="Material" style="stroke: #A80036; stroke-width: 1.5;" width="82" x="880.5" y="14.5"/><ellipse cx="895.5" cy="30.5" fill="#A9DCDF" rx="11" ry="11" style="stroke: #A80036; stroke-width: 1.0;"/><path d="M895.6094,25.8438 L894.4531,30.9219 L896.7813,30.9219 L895.6094,25.8438 Z M894.125,23.6094 L897.1094,23.6094 L900.4688,36 L898.0156,36 L897.25,32.9375 L893.9688,32.9375 L893.2188,36 L890.7813,36 L894.125,23.6094 Z "/><text fill="#000000" font-family="sans-serif" font-size="12" font-style="italic" lengthAdjust="spacingAndGlyphs" textLength="50" x="909.5" y="34.6543">Material</text><line style="stroke: #A80036; stroke-width: 1.5;" x1="881.5" x2="961.5" y1="46.5" y2="46.5"/><line style="stroke: #A80036; stroke-width: 1.5;" x1="881.5" x2="961.5" y1="54.5" y2="54.5"/><ellipse cx="891.5" cy="66.4023" fill="#84BE84" rx="3" ry="3" style="stroke: #038048; stroke-width: 1.0;"/><text fill="#000000" font-family="sans-serif" font-size="11" lengthAdjust="spacingAndGlyphs" textLength="48" x="900.5" y="68.7104">scatter()</text><!--class Lambertian--><rect fill="#FEFECE" filter="url(#f1nrouyjo2xvf1)" height="60.8047" id="Lambertian" style="stroke: #A80036; stroke-width: 1.5;" width="102" x="747.5" y="161"/><ellipse cx="762.5" cy="177" fill="#ADD1B2" rx="11" ry="11" style="stroke: #A80036; stroke-width: 1.0;"/><path d="M765.4688,182.6406 Q764.8906,182.9375 764.25,183.0781 Q763.6094,183.2344 762.9063,183.2344 Q760.4063,183.2344 759.0781,181.5938 Q757.7656,179.9375 757.7656,176.8125 Q757.7656,173.6875 759.0781,172.0313 Q760.4063,170.375 762.9063,170.375 Q763.6094,170.375 764.25,170.5313 Q764.9063,170.6875 765.4688,170.9844 L765.4688,173.7031 Q764.8438,173.125 764.25,172.8594 Q763.6563,172.5781 763.0313,172.5781 Q761.6875,172.5781 761,173.6563 Q760.3125,174.7188 760.3125,176.8125 Q760.3125,178.9063 761,179.9844 Q761.6875,181.0469 763.0313,181.0469 Q763.6563,181.0469 764.25,180.7813 Q764.8438,180.5 765.4688,179.9219 L765.4688,182.6406 Z "/><text fill="#000000" font-family="sans-serif" font-size="12" lengthAdjust="spacingAndGlyphs" textLength="70" x="776.5" y="181.1543">Lambertian</text><line style="stroke: #A80036; stroke-width: 1.5;" x1="748.5" x2="848.5" y1="193" y2="193"/><line style="stroke: #A80036; stroke-width: 1.5;" x1="748.5" x2="848.5" y1="201" y2="201"/><ellipse cx="758.5" cy="212.9023" fill="#84BE84" rx="3" ry="3" style="stroke: #038048; stroke-width: 1.0;"/><text fill="#000000" font-family="sans-serif" font-size="11" lengthAdjust="spacingAndGlyphs" textLength="48" x="767.5" y="215.2104">scatter()</text><!--class Metal--><rect fill="#FEFECE" filter="url(#f1nrouyjo2xvf1)" height="60.8047" id="Metal" style="stroke: #A80036; stroke-width: 1.5;" width="74" x="884.5" y="161"/><ellipse cx="903.1" cy="177" fill="#ADD1B2" rx="11" ry="11" style="stroke: #A80036; stroke-width: 1.0;"/><path d="M906.0688,182.6406 Q905.4906,182.9375 904.85,183.0781 Q904.2094,183.2344 903.5063,183.2344 Q901.0063,183.2344 899.6781,181.5938 Q898.3656,179.9375 898.3656,176.8125 Q898.3656,173.6875 899.6781,172.0313 Q901.0063,170.375 903.5063,170.375 Q904.2094,170.375 904.85,170.5313 Q905.5063,170.6875 906.0688,170.9844 L906.0688,173.7031 Q905.4438,173.125 904.85,172.8594 Q904.2563,172.5781 903.6313,172.5781 Q902.2875,172.5781 901.6,173.6563 Q900.9125,174.7188 900.9125,176.8125 Q900.9125,178.9063 901.6,179.9844 Q902.2875,181.0469 903.6313,181.0469 Q904.2563,181.0469 904.85,180.7813 Q905.4438,180.5 906.0688,179.9219 L906.0688,182.6406 Z "/><text fill="#000000" font-family="sans-serif" font-size="12" lengthAdjust="spacingAndGlyphs" textLength="34" x="917.9" y="181.1543">Metal</text><line style="stroke: #A80036; stroke-width: 1.5;" x1="885.5" x2="957.5" y1="193" y2="193"/><line style="stroke: #A80036; stroke-width: 1.5;" x1="885.5" x2="957.5" y1="201" y2="201"/><ellipse cx="895.5" cy="212.9023" fill="#84BE84" rx="3" ry="3" style="stroke: #038048; stroke-width: 1.0;"/><text fill="#000000" font-family="sans-serif" font-size="11" lengthAdjust="spacingAndGlyphs" textLength="48" x="904.5" y="215.2104">scatter()</text><!--class Dielectric--><rect fill="#FEFECE" filter="url(#f1nrouyjo2xvf1)" height="60.8047" id="Dielectric" style="stroke: #A80036; stroke-width: 1.5;" width="90" x="993.5" y="161"/><ellipse cx="1008.5" cy="177" fill="#ADD1B2" rx="11" ry="11" style="stroke: #A80036; stroke-width: 1.0;"/><path d="M1011.4688,182.6406 Q1010.8906,182.9375 1010.25,183.0781 Q1009.6094,183.2344 1008.9063,183.2344 Q1006.4063,183.2344 1005.0781,181.5938 Q1003.7656,179.9375 1003.7656,176.8125 Q1003.7656,173.6875 1005.0781,172.0313 Q1006.4063,170.375 1008.9063,170.375 Q1009.6094,170.375 1010.25,170.5313 Q1010.9063,170.6875 1011.4688,170.9844 L1011.4688,173.7031 Q1010.8438,173.125 1010.25,172.8594 Q1009.6563,172.5781 1009.0313,172.5781 Q1007.6875,172.5781 1007,173.6563 Q1006.3125,174.7188 1006.3125,176.8125 Q1006.3125,178.9063 1007,179.9844 Q1007.6875,181.0469 1009.0313,181.0469 Q1009.6563,181.0469 1010.25,180.7813 Q1010.8438,180.5 1011.4688,179.9219 L1011.4688,182.6406 Z "/><text fill="#000000" font-family="sans-serif" font-size="12" lengthAdjust="spacingAndGlyphs" textLength="58" x="1022.5" y="181.1543">Dielectric</text><line style="stroke: #A80036; stroke-width: 1.5;" x1="994.5" x2="1082.5" y1="193" y2="193"/><line style="stroke: #A80036; stroke-width: 1.5;" x1="994.5" x2="1082.5" y1="201" y2="201"/><ellipse cx="1004.5" cy="212.9023" fill="#84BE84" rx="3" ry="3" style="stroke: #038048; stroke-width: 1.0;"/><text fill="#000000" font-family="sans-serif" font-size="11" lengthAdjust="spacingAndGlyphs" textLength="48" x="1013.5" y="215.2104">scatter()</text><!--class GenericObject--><rect fill="#FEFECE" filter="url(#f1nrouyjo2xvf1)" height="48" id="GenericObject" style="stroke: #A80036; stroke-width: 1.5;" width="120" x="232.5" y="301"/><ellipse cx="247.5" cy="317" fill="#ADD1B2" rx="11" ry="11" style="stroke: #A80036; stroke-width: 1.0;"/><path d="M250.4688,322.6406 Q249.8906,322.9375 249.25,323.0781 Q248.6094,323.2344 247.9063,323.2344 Q245.4063,323.2344 244.0781,321.5938 Q242.7656,319.9375 242.7656,316.8125 Q242.7656,313.6875 244.0781,312.0313 Q245.4063,310.375 247.9063,310.375 Q248.6094,310.375 249.25,310.5313 Q249.9063,310.6875 250.4688,310.9844 L250.4688,313.7031 Q249.8438,313.125 249.25,312.8594 Q248.6563,312.5781 248.0313,312.5781 Q246.6875,312.5781 246,313.6563 Q245.3125,314.7188 245.3125,316.8125 Q245.3125,318.9063 246,319.9844 Q246.6875,321.0469 248.0313,321.0469 Q248.6563,321.0469 249.25,320.7813 Q249.8438,320.5 250.4688,319.9219 L250.4688,322.6406 Z "/><text fill="#000000" font-family="sans-serif" font-size="12" lengthAdjust="spacingAndGlyphs" textLength="88" x="261.5" y="321.1543">GenericObject</text><line style="stroke: #A80036; stroke-width: 1.5;" x1="233.5" x2="351.5" y1="333" y2="333"/><line style="stroke: #A80036; stroke-width: 1.5;" x1="233.5" x2="351.5" y1="341" y2="341"/><!--class GenericMaterial--><rect fill="#FEFECE" filter="url(#f1nrouyjo2xvf1)" height="48" id="GenericMaterial" style="stroke: #A80036; stroke-width: 1.5;" width="130" x="856.5" y="301"/><ellipse cx="871.5" cy="317" fill="#ADD1B2" rx="11" ry="11" style="stroke: #A80036; stroke-width: 1.0;"/><path d="M874.4688,322.6406 Q873.8906,322.9375 873.25,323.0781 Q872.6094,323.2344 871.9063,323.2344 Q869.4063,323.2344 868.0781,321.5938 Q866.7656,319.9375 866.7656,316.8125 Q866.7656,313.6875 868.0781,312.0313 Q869.4063,310.375 871.9063,310.375 Q872.6094,310.375 873.25,310.5313 Q873.9063,310.6875 874.4688,310.9844 L874.4688,313.7031 Q873.8438,313.125 873.25,312.8594 Q872.6563,312.5781 872.0313,312.5781 Q870.6875,312.5781 870,313.6563 Q869.3125,314.7188 869.3125,316.8125 Q869.3125,318.9063 870,319.9844 Q870.6875,321.0469 872.0313,321.0469 Q872.6563,321.0469 873.25,320.7813 Q873.8438,320.5 874.4688,319.9219 L874.4688,322.6406 Z "/><text fill="#000000" font-family="sans-serif" font-size="12" lengthAdjust="spacingAndGlyphs" textLength="98" x="885.5" y="321.1543">GenericMaterial</text><line style="stroke: #A80036; stroke-width: 1.5;" x1="857.5" x2="985.5" y1="333" y2="333"/><line style="stroke: #A80036; stroke-width: 1.5;" x1="857.5" x2="985.5" y1="341" y2="341"/><!--class Renderer--><rect fill="#FEFECE" filter="url(#f1nrouyjo2xvf1)" height="60.8047" id="Renderer" style="stroke: #A80036; stroke-width: 1.5;" width="250" x="462.5" y="161"/><ellipse cx="554.25" cy="177" fill="#ADD1B2" rx="11" ry="11" style="stroke: #A80036; stroke-width: 1.0;"/><path d="M557.2188,182.6406 Q556.6406,182.9375 556,183.0781 Q555.3594,183.2344 554.6563,183.2344 Q552.1563,183.2344 550.8281,181.5938 Q549.5156,179.9375 549.5156,176.8125 Q549.5156,173.6875 550.8281,172.0313 Q552.1563,170.375 554.6563,170.375 Q555.3594,170.375 556,170.5313 Q556.6563,170.6875 557.2188,170.9844 L557.2188,173.7031 Q556.5938,173.125 556,172.8594 Q555.4063,172.5781 554.7813,172.5781 Q553.4375,172.5781 552.75,173.6563 Q552.0625,174.7188 552.0625,176.8125 Q552.0625,178.9063 552.75,179.9844 Q553.4375,181.0469 554.7813,181.0469 Q555.4063,181.0469 556,180.7813 Q556.5938,180.5 557.2188,179.9219 L557.2188,182.6406 Z "/><text fill="#000000" font-family="sans-serif" font-size="12" lengthAdjust="spacingAndGlyphs" textLength="58" x="574.75" y="181.1543">Renderer</text><line style="stroke: #A80036; stroke-width: 1.5;" x1="463.5" x2="711.5" y1="193" y2="193"/><line style="stroke: #A80036; stroke-width: 1.5;" x1="463.5" x2="711.5" y1="201" y2="201"/><ellipse cx="473.5" cy="212.9023" fill="#84BE84" rx="3" ry="3" style="stroke: #038048; stroke-width: 1.0;"/><text fill="#000000" font-family="sans-serif" font-size="11" lengthAdjust="spacingAndGlyphs" textLength="224" x="482.5" y="215.2104">render(World* world, Camera* camera)</text><!--class Camera--><rect fill="#FEFECE" filter="url(#f1nrouyjo2xvf1)" height="48" id="Camera" style="stroke: #A80036; stroke-width: 1.5;" width="80" x="547.5" y="21"/><ellipse cx="562.5" cy="37" fill="#ADD1B2" rx="11" ry="11" style="stroke: #A80036; stroke-width: 1.0;"/><path d="M565.4688,42.6406 Q564.8906,42.9375 564.25,43.0781 Q563.6094,43.2344 562.9063,43.2344 Q560.4063,43.2344 559.0781,41.5938 Q557.7656,39.9375 557.7656,36.8125 Q557.7656,33.6875 559.0781,32.0313 Q560.4063,30.375 562.9063,30.375 Q563.6094,30.375 564.25,30.5313 Q564.9063,30.6875 565.4688,30.9844 L565.4688,33.7031 Q564.8438,33.125 564.25,32.8594 Q563.6563,32.5781 563.0313,32.5781 Q561.6875,32.5781 561,33.6563 Q560.3125,34.7188 560.3125,36.8125 Q560.3125,38.9063 561,39.9844 Q561.6875,41.0469 563.0313,41.0469 Q563.6563,41.0469 564.25,40.7813 Q564.8438,40.5 565.4688,39.9219 L565.4688,42.6406 Z "/><text fill="#000000" font-family="sans-serif" font-size="12" lengthAdjust="spacingAndGlyphs" textLength="48" x="576.5" y="41.1543">Camera</text><line style="stroke: #A80036; stroke-width: 1.5;" x1="548.5" x2="626.5" y1="53" y2="53"/><line style="stroke: #A80036; stroke-width: 1.5;" x1="548.5" x2="626.5" y1="61" y2="61"/><!--link World to Object--><path d="M130.97,139.63 C151.93,120.64 173.82,99.48 190.4,82.09 " fill="none" id="World-Object" style="stroke: #A80036; stroke-width: 1.0;"/><polygon fill="#FFFFFF" points="121.1,148.47,128.2376,147.4428,130.0346,140.4592,122.897,141.4864,121.1,148.47" style="stroke: #A80036; stroke-width: 1.0;"/><!--link Object to World--><path d="M152.34,95.43 C133.28,112.68 113.25,131.87 97.01,148.47 " fill="none" id="Object-World" style="stroke: #A80036; stroke-width: 1.0;"/><polygon fill="none" points="147.73,90.16,167.33,82.09,157.04,100.62,147.73,90.16" style="stroke: #A80036; stroke-width: 1.0;"/><!--link Object to Mesh--><path d="M216.5,102.35 C216.5,115.38 216.5,129.13 216.5,141.8 " fill="none" id="Object-Mesh" style="stroke: #A80036; stroke-width: 1.0;"/><polygon fill="none" points="209.5,102.09,216.5,82.09,223.5,102.09,209.5,102.09" style="stroke: #A80036; stroke-width: 1.0;"/><!--link Object to Sphere--><path d="M269.4,96.29 C284.92,111.04 301.86,127.15 317.27,141.8 " fill="none" id="Object-Sphere" style="stroke: #A80036; stroke-width: 1.0;"/><polygon fill="none" points="264.14,100.94,254.46,82.09,273.78,90.8,264.14,100.94" style="stroke: #A80036; stroke-width: 1.0;"/><!--link Material to Lambertian--><path d="M883.26,90.92 C863.85,113.73 840.81,140.8 823.65,160.95 " fill="none" id="Material-Lambertian" style="stroke: #A80036; stroke-width: 1.0;"/><polygon fill="none" points="878.02,86.28,896.31,75.59,888.68,95.36,878.02,86.28" style="stroke: #A80036; stroke-width: 1.0;"/><!--link Material to Metal--><path d="M921.5,95.6 C921.5,117.36 921.5,142.16 921.5,160.95 " fill="none" id="Material-Metal" style="stroke: #A80036; stroke-width: 1.0;"/><polygon fill="none" points="914.5,95.59,921.5,75.59,928.5,95.59,914.5,95.59" style="stroke: #A80036; stroke-width: 1.0;"/><!--link Material to Dielectric--><path d="M958.14,91.25 C976.55,113.99 998.33,140.89 1014.57,160.95 " fill="none" id="Material-Dielectric" style="stroke: #A80036; stroke-width: 1.0;"/><polygon fill="none" points="952.6,95.54,945.46,75.59,963.48,86.73,952.6,95.54" style="stroke: #A80036; stroke-width: 1.0;"/><!--link Mesh to GenericObject--><path d="M247.1,245.45 C258.26,264.76 270.32,285.61 279.19,300.98 " fill="none" id="Mesh-GenericObject" style="stroke: #A80036; stroke-width: 1.0; stroke-dasharray: 7.0,7.0;"/><polygon fill="#A80036" points="244.58,241.09,245.6174,250.8841,247.0807,245.4197,252.545,246.883,244.58,241.09" style="stroke: #A80036; stroke-width: 1.0;"/><!--link Sphere to GenericObject--><path d="M337.9,245.45 C326.74,264.76 314.68,285.61 305.81,300.98 " fill="none" id="Sphere-GenericObject" style="stroke: #A80036; stroke-width: 1.0; stroke-dasharray: 7.0,7.0;"/><polygon fill="#A80036" points="340.42,241.09,332.455,246.883,337.9193,245.4197,339.3826,250.8841,340.42,241.09" style="stroke: #A80036; stroke-width: 1.0;"/><!--link Lambertian to GenericMaterial--><path d="M829.56,225.7 C851.45,249.11 880.23,279.88 899.71,300.71 " fill="none" id="Lambertian-GenericMaterial" style="stroke: #A80036; stroke-width: 1.0; stroke-dasharray: 7.0,7.0;"/><polygon fill="#A80036" points="826.1,222.01,829.3179,231.3183,829.5121,225.6648,835.1656,225.859,826.1,222.01" style="stroke: #A80036; stroke-width: 1.0;"/><!--link Metal to GenericMaterial--><path d="M921.5,227.16 C921.5,250.37 921.5,280.3 921.5,300.71 " fill="none" id="Metal-GenericMaterial" style="stroke: #A80036; stroke-width: 1.0; stroke-dasharray: 7.0,7.0;"/><polygon fill="#A80036" points="921.5,222.01,917.5,231.01,921.5,227.01,925.5,231.01,921.5,222.01" style="stroke: #A80036; stroke-width: 1.0;"/><!--link Dielectric to GenericMaterial--><path d="M1008.7,225.99 C987.91,249.36 960.68,279.96 942.22,300.71 " fill="none" id="Dielectric-GenericMaterial" style="stroke: #A80036; stroke-width: 1.0; stroke-dasharray: 7.0,7.0;"/><polygon fill="#A80036" points="1012.24,222.01,1003.2701,226.0771,1008.9173,225.7463,1009.2481,231.3934,1012.24,222.01" style="stroke: #A80036; stroke-width: 1.0;"/><!--link Object to Renderer--><path d="M280.23,70.82 C344.42,95.82 443.46,134.4 511.65,160.96 " fill="none" id="Object-Renderer" style="stroke: #A80036; stroke-width: 1.0; stroke-dasharray: 7.0,7.0;"/><polygon fill="#A80036" points="275.29,68.9,282.2241,75.8941,279.9489,70.715,285.1281,68.4398,275.29,68.9" style="stroke: #A80036; stroke-width: 1.0;"/><!--link Camera to Renderer--><path d="M587.5,74.36 C587.5,99.31 587.5,135.5 587.5,160.83 " fill="none" id="Camera-Renderer" style="stroke: #A80036; stroke-width: 1.0; stroke-dasharray: 7.0,7.0;"/><polygon fill="#A80036" points="587.5,69.22,583.5,78.22,587.5,74.22,591.5,78.22,587.5,69.22" style="stroke: #A80036; stroke-width: 1.0;"/><!--
@startuml
abstract Object {
 +hit() : bool
 +getBBox() : bool
}
class World {
 +hit() : bool
 +getBBox() : bool
 AABB* bbox
}
class Mesh{
 +hit() : bool
 +getBBox() : bool 
 Material* material
 AABB* bbox 
}
class Sphere{
 +hit() : bool
 +getBBox() : bool 
 Material* material
 AABB* bbox 
}

World o- - Object
Object <|- - World
Object <|- - Mesh
Object <|- - Sphere

abstract Material {
 +scatter()
}
class Lambertian {
 +scatter()
}
class Metal {
 +scatter()
}
class Dielectric {
 +scatter()
}

Material <|- - Lambertian
Material <|- - Metal
Material <|- - Dielectric

class GenericObject

Mesh <.. GenericObject
Sphere <.. GenericObject


class GenericMaterial

Lambertian <.. GenericMaterial
Metal <.. GenericMaterial
Dielectric <.. GenericMaterial

class Renderer {
 +render(World* world, Camera* camera)
}

Object <.. Renderer

class Camera

Camera <.. Renderer

@enduml

PlantUML version 1.2018.13(Mon Nov 26 18:11:51 CET 2018)
(GPL source distribution)
Java Runtime: OpenJDK Runtime Environment
JVM: OpenJDK 64-Bit Server VM
Java Version: 14.0.2+12-Ubuntu-120.04
Operating System: Linux
OS Version: 5.4.0-58-generic
Default Encoding: UTF-8
Language: en
Country: US
--></g></svg>