<?xml version="1.0" encoding="UTF-8" standalone="no"?><svg xmlns="http://www.w3.org/2000/svg" xmlns:xlink="http://www.w3.org/1999/xlink" contentScriptType="application/ecmascript" contentStyleType="text/css" height="481px" preserveAspectRatio="none" style="width:1237px;height:481px;" version="1.1" viewBox="0 0 1237 481" width="1237px" zoomAndPan="magnify"><defs><filter height="300%" id="f1t7at0p9odasi" width="300%" x="-1" y="-1"><feGaussianBlur result="blurOut" stdDeviation="2.0"/><feColorMatrix in="blurOut" result="blurOut2" type="matrix" values="0 0 0 0 0 0 0 0 0 0 0 0 0 0 0 0 0 0 .4 0"/><feOffset dx="4.0" dy="4.0" in="blurOut2" result="blurOut3"/><feBlend in="SourceGraphic" in2="blurOut3" mode="normal"/></filter></defs><g><!--class Object--><rect fill="#FEFECE" filter="url(#f1t7at0p9odasi)" height="99.2188" id="Object" style="stroke: #A80036; stroke-width: 1.5;" width="117" x="617" y="8"/><ellipse cx="652.7" cy="24" fill="#A9DCDF" rx="11" ry="11" style="stroke: #A80036; stroke-width: 1.0;"/><path d="M652.8094,19.3438 L651.6531,24.4219 L653.9813,24.4219 L652.8094,19.3438 Z M651.325,17.1094 L654.3094,17.1094 L657.6688,29.5 L655.2156,29.5 L654.45,26.4375 L651.1688,26.4375 L650.4188,29.5 L647.9813,29.5 L651.325,17.1094 Z "/><text fill="#000000" font-family="sans-serif" font-size="12" font-style="italic" lengthAdjust="spacingAndGlyphs" textLength="39" x="671.3" y="28.1543">Object</text><line style="stroke: #A80036; stroke-width: 1.5;" x1="618" x2="733" y1="40" y2="40"/><text fill="#000000" font-family="sans-serif" font-size="11" lengthAdjust="spacingAndGlyphs" textLength="102" x="623" y="54.2104">Material* material</text><text fill="#000000" font-family="sans-serif" font-size="11" lengthAdjust="spacingAndGlyphs" textLength="67" x="623" y="67.0151">AABB* bbox</text><line style="stroke: #A80036; stroke-width: 1.5;" x1="618" x2="733" y1="73.6094" y2="73.6094"/><ellipse cx="628" cy="85.5117" fill="#84BE84" rx="3" ry="3" style="stroke: #038048; stroke-width: 1.0;"/><text fill="#000000" font-family="sans-serif" font-size="11" lengthAdjust="spacingAndGlyphs" textLength="58" x="637" y="87.8198">hit() : bool</text><ellipse cx="628" cy="98.3164" fill="#84BE84" rx="3" ry="3" style="stroke: #038048; stroke-width: 1.0;"/><text fill="#000000" font-family="sans-serif" font-size="11" lengthAdjust="spacingAndGlyphs" textLength="91" x="637" y="100.6245">getBBox() : bool</text><!--class World--><rect fill="#FEFECE" filter="url(#f1t7at0p9odasi)" height="73.6094" id="World" style="stroke: #A80036; stroke-width: 1.5;" width="117" x="389" y="167"/><ellipse cx="426.5" cy="183" fill="#ADD1B2" rx="11" ry="11" style="stroke: #A80036; stroke-width: 1.0;"/><path d="M429.4688,188.6406 Q428.8906,188.9375 428.25,189.0781 Q427.6094,189.2344 426.9063,189.2344 Q424.4063,189.2344 423.0781,187.5938 Q421.7656,185.9375 421.7656,182.8125 Q421.7656,179.6875 423.0781,178.0313 Q424.4063,176.375 426.9063,176.375 Q427.6094,176.375 428.25,176.5313 Q428.9063,176.6875 429.4688,176.9844 L429.4688,179.7031 Q428.8438,179.125 428.25,178.8594 Q427.6563,178.5781 427.0313,178.5781 Q425.6875,178.5781 425,179.6563 Q424.3125,180.7188 424.3125,182.8125 Q424.3125,184.9063 425,185.9844 Q425.6875,187.0469 427.0313,187.0469 Q427.6563,187.0469 428.25,186.7813 Q428.8438,186.5 429.4688,185.9219 L429.4688,188.6406 Z "/><text fill="#000000" font-family="sans-serif" font-size="12" lengthAdjust="spacingAndGlyphs" textLength="35" x="445.5" y="187.1543">World</text><line style="stroke: #A80036; stroke-width: 1.5;" x1="390" x2="505" y1="199" y2="199"/><line style="stroke: #A80036; stroke-width: 1.5;" x1="390" x2="505" y1="207" y2="207"/><ellipse cx="400" cy="218.9023" fill="#84BE84" rx="3" ry="3" style="stroke: #038048; stroke-width: 1.0;"/><text fill="#000000" font-family="sans-serif" font-size="11" lengthAdjust="spacingAndGlyphs" textLength="58" x="409" y="221.2104">hit() : bool</text><ellipse cx="400" cy="231.707" fill="#84BE84" rx="3" ry="3" style="stroke: #038048; stroke-width: 1.0;"/><text fill="#000000" font-family="sans-serif" font-size="11" lengthAdjust="spacingAndGlyphs" textLength="91" x="409" y="234.0151">getBBox() : bool</text><!--class Mesh--><rect fill="#FEFECE" filter="url(#f1t7at0p9odasi)" height="73.6094" id="Mesh" style="stroke: #A80036; stroke-width: 1.5;" width="117" x="541" y="167"/><ellipse cx="579.4" cy="183" fill="#ADD1B2" rx="11" ry="11" style="stroke: #A80036; stroke-width: 1.0;"/><path d="M582.3688,188.6406 Q581.7906,188.9375 581.15,189.0781 Q580.5094,189.2344 579.8063,189.2344 Q577.3063,189.2344 575.9781,187.5938 Q574.6656,185.9375 574.6656,182.8125 Q574.6656,179.6875 575.9781,178.0313 Q577.3063,176.375 579.8063,176.375 Q580.5094,176.375 581.15,176.5313 Q581.8063,176.6875 582.3688,176.9844 L582.3688,179.7031 Q581.7438,179.125 581.15,178.8594 Q580.5563,178.5781 579.9313,178.5781 Q578.5875,178.5781 577.9,179.6563 Q577.2125,180.7188 577.2125,182.8125 Q577.2125,184.9063 577.9,185.9844 Q578.5875,187.0469 579.9313,187.0469 Q580.5563,187.0469 581.15,186.7813 Q581.7438,186.5 582.3688,185.9219 L582.3688,188.6406 Z "/><text fill="#000000" font-family="sans-serif" font-size="12" lengthAdjust="spacingAndGlyphs" textLength="33" x="598.6" y="187.1543">Mesh</text><line style="stroke: #A80036; stroke-width: 1.5;" x1="542" x2="657" y1="199" y2="199"/><line style="stroke: #A80036; stroke-width: 1.5;" x1="542" x2="657" y1="207" y2="207"/><ellipse cx="552" cy="218.9023" fill="#84BE84" rx="3" ry="3" style="stroke: #038048; stroke-width: 1.0;"/><text fill="#000000" font-family="sans-serif" font-size="11" lengthAdjust="spacingAndGlyphs" textLength="58" x="561" y="221.2104">hit() : bool</text><ellipse cx="552" cy="231.707" fill="#84BE84" rx="3" ry="3" style="stroke: #038048; stroke-width: 1.0;"/><text fill="#000000" font-family="sans-serif" font-size="11" lengthAdjust="spacingAndGlyphs" textLength="91" x="561" y="234.0151">getBBox() : bool</text><!--class Sphere--><rect fill="#FEFECE" filter="url(#f1t7at0p9odasi)" height="73.6094" id="Sphere" style="stroke: #A80036; stroke-width: 1.5;" width="117" x="693" y="167"/><ellipse cx="726" cy="183" fill="#ADD1B2" rx="11" ry="11" style="stroke: #A80036; stroke-width: 1.0;"/><path d="M728.9688,188.6406 Q728.3906,188.9375 727.75,189.0781 Q727.1094,189.2344 726.4063,189.2344 Q723.9063,189.2344 722.5781,187.5938 Q721.2656,185.9375 721.2656,182.8125 Q721.2656,179.6875 722.5781,178.0313 Q723.9063,176.375 726.4063,176.375 Q727.1094,176.375 727.75,176.5313 Q728.4063,176.6875 728.9688,176.9844 L728.9688,179.7031 Q728.3438,179.125 727.75,178.8594 Q727.1563,178.5781 726.5313,178.5781 Q725.1875,178.5781 724.5,179.6563 Q723.8125,180.7188 723.8125,182.8125 Q723.8125,184.9063 724.5,185.9844 Q725.1875,187.0469 726.5313,187.0469 Q727.1563,187.0469 727.75,186.7813 Q728.3438,186.5 728.9688,185.9219 L728.9688,188.6406 Z "/><text fill="#000000" font-family="sans-serif" font-size="12" lengthAdjust="spacingAndGlyphs" textLength="45" x="744" y="187.1543">Sphere</text><line style="stroke: #A80036; stroke-width: 1.5;" x1="694" x2="809" y1="199" y2="199"/><line style="stroke: #A80036; stroke-width: 1.5;" x1="694" x2="809" y1="207" y2="207"/><ellipse cx="704" cy="218.9023" fill="#84BE84" rx="3" ry="3" style="stroke: #038048; stroke-width: 1.0;"/><text fill="#000000" font-family="sans-serif" font-size="11" lengthAdjust="spacingAndGlyphs" textLength="58" x="713" y="221.2104">hit() : bool</text><ellipse cx="704" cy="231.707" fill="#84BE84" rx="3" ry="3" style="stroke: #038048; stroke-width: 1.0;"/><text fill="#000000" font-family="sans-serif" font-size="11" lengthAdjust="spacingAndGlyphs" textLength="91" x="713" y="234.0151">getBBox() : bool</text><!--class Material--><rect fill="#FEFECE" filter="url(#f1t7at0p9odasi)" height="60.8047" id="Material" style="stroke: #A80036; stroke-width: 1.5;" width="82" x="845.5" y="173.5"/><ellipse cx="860.5" cy="189.5" fill="#A9DCDF" rx="11" ry="11" style="stroke: #A80036; stroke-width: 1.0;"/><path d="M860.6094,184.8438 L859.4531,189.9219 L861.7813,189.9219 L860.6094,184.8438 Z M859.125,182.6094 L862.1094,182.6094 L865.4688,195 L863.0156,195 L862.25,191.9375 L858.9688,191.9375 L858.2188,195 L855.7813,195 L859.125,182.6094 Z "/><text fill="#000000" font-family="sans-serif" font-size="12" font-style="italic" lengthAdjust="spacingAndGlyphs" textLength="50" x="874.5" y="193.6543">Material</text><line style="stroke: #A80036; stroke-width: 1.5;" x1="846.5" x2="926.5" y1="205.5" y2="205.5"/><line style="stroke: #A80036; stroke-width: 1.5;" x1="846.5" x2="926.5" y1="213.5" y2="213.5"/><ellipse cx="856.5" cy="225.4023" fill="#84BE84" rx="3" ry="3" style="stroke: #038048; stroke-width: 1.0;"/><text fill="#000000" font-family="sans-serif" font-size="11" lengthAdjust="spacingAndGlyphs" textLength="48" x="865.5" y="227.7104">scatter()</text><!--class Lambertian--><rect fill="#FEFECE" filter="url(#f1t7at0p9odasi)" height="60.8047" id="Lambertian" style="stroke: #A80036; stroke-width: 1.5;" width="102" x="712.5" y="301"/><ellipse cx="727.5" cy="317" fill="#ADD1B2" rx="11" ry="11" style="stroke: #A80036; stroke-width: 1.0;"/><path d="M730.4688,322.6406 Q729.8906,322.9375 729.25,323.0781 Q728.6094,323.2344 727.9063,323.2344 Q725.4063,323.2344 724.0781,321.5938 Q722.7656,319.9375 722.7656,316.8125 Q722.7656,313.6875 724.0781,312.0313 Q725.4063,310.375 727.9063,310.375 Q728.6094,310.375 729.25,310.5313 Q729.9063,310.6875 730.4688,310.9844 L730.4688,313.7031 Q729.8438,313.125 729.25,312.8594 Q728.6563,312.5781 728.0313,312.5781 Q726.6875,312.5781 726,313.6563 Q725.3125,314.7188 725.3125,316.8125 Q725.3125,318.9063 726,319.9844 Q726.6875,321.0469 728.0313,321.0469 Q728.6563,321.0469 729.25,320.7813 Q729.8438,320.5 730.4688,319.9219 L730.4688,322.6406 Z "/><text fill="#000000" font-family="sans-serif" font-size="12" lengthAdjust="spacingAndGlyphs" textLength="70" x="741.5" y="321.1543">Lambertian</text><line style="stroke: #A80036; stroke-width: 1.5;" x1="713.5" x2="813.5" y1="333" y2="333"/><line style="stroke: #A80036; stroke-width: 1.5;" x1="713.5" x2="813.5" y1="341" y2="341"/><ellipse cx="723.5" cy="352.9023" fill="#84BE84" rx="3" ry="3" style="stroke: #038048; stroke-width: 1.0;"/><text fill="#000000" font-family="sans-serif" font-size="11" lengthAdjust="spacingAndGlyphs" textLength="48" x="732.5" y="355.2104">scatter()</text><!--class Metal--><rect fill="#FEFECE" filter="url(#f1t7at0p9odasi)" height="60.8047" id="Metal" style="stroke: #A80036; stroke-width: 1.5;" width="74" x="849.5" y="301"/><ellipse cx="868.1" cy="317" fill="#ADD1B2" rx="11" ry="11" style="stroke: #A80036; stroke-width: 1.0;"/><path d="M871.0688,322.6406 Q870.4906,322.9375 869.85,323.0781 Q869.2094,323.2344 868.5063,323.2344 Q866.0063,323.2344 864.6781,321.5938 Q863.3656,319.9375 863.3656,316.8125 Q863.3656,313.6875 864.6781,312.0313 Q866.0063,310.375 868.5063,310.375 Q869.2094,310.375 869.85,310.5313 Q870.5063,310.6875 871.0688,310.9844 L871.0688,313.7031 Q870.4438,313.125 869.85,312.8594 Q869.2563,312.5781 868.6313,312.5781 Q867.2875,312.5781 866.6,313.6563 Q865.9125,314.7188 865.9125,316.8125 Q865.9125,318.9063 866.6,319.9844 Q867.2875,321.0469 868.6313,321.0469 Q869.2563,321.0469 869.85,320.7813 Q870.4438,320.5 871.0688,319.9219 L871.0688,322.6406 Z "/><text fill="#000000" font-family="sans-serif" font-size="12" lengthAdjust="spacingAndGlyphs" textLength="34" x="882.9" y="321.1543">Metal</text><line style="stroke: #A80036; stroke-width: 1.5;" x1="850.5" x2="922.5" y1="333" y2="333"/><line style="stroke: #A80036; stroke-width: 1.5;" x1="850.5" x2="922.5" y1="341" y2="341"/><ellipse cx="860.5" cy="352.9023" fill="#84BE84" rx="3" ry="3" style="stroke: #038048; stroke-width: 1.0;"/><text fill="#000000" font-family="sans-serif" font-size="11" lengthAdjust="spacingAndGlyphs" textLength="48" x="869.5" y="355.2104">scatter()</text><!--class Dielectric--><rect fill="#FEFECE" filter="url(#f1t7at0p9odasi)" height="60.8047" id="Dielectric" style="stroke: #A80036; stroke-width: 1.5;" width="90" x="958.5" y="301"/><ellipse cx="973.5" cy="317" fill="#ADD1B2" rx="11" ry="11" style="stroke: #A80036; stroke-width: 1.0;"/><path d="M976.4688,322.6406 Q975.8906,322.9375 975.25,323.0781 Q974.6094,323.2344 973.9063,323.2344 Q971.4063,323.2344 970.0781,321.5938 Q968.7656,319.9375 968.7656,316.8125 Q968.7656,313.6875 970.0781,312.0313 Q971.4063,310.375 973.9063,310.375 Q974.6094,310.375 975.25,310.5313 Q975.9063,310.6875 976.4688,310.9844 L976.4688,313.7031 Q975.8438,313.125 975.25,312.8594 Q974.6563,312.5781 974.0313,312.5781 Q972.6875,312.5781 972,313.6563 Q971.3125,314.7188 971.3125,316.8125 Q971.3125,318.9063 972,319.9844 Q972.6875,321.0469 974.0313,321.0469 Q974.6563,321.0469 975.25,320.7813 Q975.8438,320.5 976.4688,319.9219 L976.4688,322.6406 Z "/><text fill="#000000" font-family="sans-serif" font-size="12" lengthAdjust="spacingAndGlyphs" textLength="58" x="987.5" y="321.1543">Dielectric</text><line style="stroke: #A80036; stroke-width: 1.5;" x1="959.5" x2="1047.5" y1="333" y2="333"/><line style="stroke: #A80036; stroke-width: 1.5;" x1="959.5" x2="1047.5" y1="341" y2="341"/><ellipse cx="969.5" cy="352.9023" fill="#84BE84" rx="3" ry="3" style="stroke: #038048; stroke-width: 1.0;"/><text fill="#000000" font-family="sans-serif" font-size="11" lengthAdjust="spacingAndGlyphs" textLength="48" x="978.5" y="355.2104">scatter()</text><!--class GenericObject--><rect fill="#FEFECE" filter="url(#f1t7at0p9odasi)" height="48" id="GenericObject" style="stroke: #A80036; stroke-width: 1.5;" width="120" x="548.5" y="307.5"/><ellipse cx="563.5" cy="323.5" fill="#ADD1B2" rx="11" ry="11" style="stroke: #A80036; stroke-width: 1.0;"/><path d="M566.4688,329.1406 Q565.8906,329.4375 565.25,329.5781 Q564.6094,329.7344 563.9063,329.7344 Q561.4063,329.7344 560.0781,328.0938 Q558.7656,326.4375 558.7656,323.3125 Q558.7656,320.1875 560.0781,318.5313 Q561.4063,316.875 563.9063,316.875 Q564.6094,316.875 565.25,317.0313 Q565.9063,317.1875 566.4688,317.4844 L566.4688,320.2031 Q565.8438,319.625 565.25,319.3594 Q564.6563,319.0781 564.0313,319.0781 Q562.6875,319.0781 562,320.1563 Q561.3125,321.2188 561.3125,323.3125 Q561.3125,325.4063 562,326.4844 Q562.6875,327.5469 564.0313,327.5469 Q564.6563,327.5469 565.25,327.2813 Q565.8438,327 566.4688,326.4219 L566.4688,329.1406 Z "/><text fill="#000000" font-family="sans-serif" font-size="12" lengthAdjust="spacingAndGlyphs" textLength="88" x="577.5" y="327.6543">GenericObject</text><line style="stroke: #A80036; stroke-width: 1.5;" x1="549.5" x2="667.5" y1="339.5" y2="339.5"/><line style="stroke: #A80036; stroke-width: 1.5;" x1="549.5" x2="667.5" y1="347.5" y2="347.5"/><!--class GenericMaterial--><rect fill="#FEFECE" filter="url(#f1t7at0p9odasi)" height="48" id="GenericMaterial" style="stroke: #A80036; stroke-width: 1.5;" width="130" x="821.5" y="422"/><ellipse cx="836.5" cy="438" fill="#ADD1B2" rx="11" ry="11" style="stroke: #A80036; stroke-width: 1.0;"/><path d="M839.4688,443.6406 Q838.8906,443.9375 838.25,444.0781 Q837.6094,444.2344 836.9063,444.2344 Q834.4063,444.2344 833.0781,442.5938 Q831.7656,440.9375 831.7656,437.8125 Q831.7656,434.6875 833.0781,433.0313 Q834.4063,431.375 836.9063,431.375 Q837.6094,431.375 838.25,431.5313 Q838.9063,431.6875 839.4688,431.9844 L839.4688,434.7031 Q838.8438,434.125 838.25,433.8594 Q837.6563,433.5781 837.0313,433.5781 Q835.6875,433.5781 835,434.6563 Q834.3125,435.7188 834.3125,437.8125 Q834.3125,439.9063 835,440.9844 Q835.6875,442.0469 837.0313,442.0469 Q837.6563,442.0469 838.25,441.7813 Q838.8438,441.5 839.4688,440.9219 L839.4688,443.6406 Z "/><text fill="#000000" font-family="sans-serif" font-size="12" lengthAdjust="spacingAndGlyphs" textLength="98" x="850.5" y="442.1543">GenericMaterial</text><line style="stroke: #A80036; stroke-width: 1.5;" x1="822.5" x2="950.5" y1="454" y2="454"/><line style="stroke: #A80036; stroke-width: 1.5;" x1="822.5" x2="950.5" y1="462" y2="462"/><!--class Renderer--><rect fill="#FEFECE" filter="url(#f1t7at0p9odasi)" height="60.8047" id="Renderer" style="stroke: #A80036; stroke-width: 1.5;" width="264" x="962.5" y="173.5"/><ellipse cx="1061.25" cy="189.5" fill="#ADD1B2" rx="11" ry="11" style="stroke: #A80036; stroke-width: 1.0;"/><path d="M1064.2188,195.1406 Q1063.6406,195.4375 1063,195.5781 Q1062.3594,195.7344 1061.6563,195.7344 Q1059.1563,195.7344 1057.8281,194.0938 Q1056.5156,192.4375 1056.5156,189.3125 Q1056.5156,186.1875 1057.8281,184.5313 Q1059.1563,182.875 1061.6563,182.875 Q1062.3594,182.875 1063,183.0313 Q1063.6563,183.1875 1064.2188,183.4844 L1064.2188,186.2031 Q1063.5938,185.625 1063,185.3594 Q1062.4063,185.0781 1061.7813,185.0781 Q1060.4375,185.0781 1059.75,186.1563 Q1059.0625,187.2188 1059.0625,189.3125 Q1059.0625,191.4063 1059.75,192.4844 Q1060.4375,193.5469 1061.7813,193.5469 Q1062.4063,193.5469 1063,193.2813 Q1063.5938,193 1064.2188,192.4219 L1064.2188,195.1406 Z "/><text fill="#000000" font-family="sans-serif" font-size="12" lengthAdjust="spacingAndGlyphs" textLength="58" x="1081.75" y="193.6543">Renderer</text><line style="stroke: #A80036; stroke-width: 1.5;" x1="963.5" x2="1225.5" y1="205.5" y2="205.5"/><line style="stroke: #A80036; stroke-width: 1.5;" x1="963.5" x2="1225.5" y1="213.5" y2="213.5"/><ellipse cx="973.5" cy="225.4023" fill="#84BE84" rx="3" ry="3" style="stroke: #038048; stroke-width: 1.0;"/><text fill="#000000" font-family="sans-serif" font-size="11" lengthAdjust="spacingAndGlyphs" textLength="238" x="982.5" y="227.7104">render(in World* world, Camera* camera)</text><!--class Camera--><rect fill="#FEFECE" filter="url(#f1t7at0p9odasi)" height="48" id="Camera" style="stroke: #A80036; stroke-width: 1.5;" width="80" x="1054.5" y="33.5"/><ellipse cx="1069.5" cy="49.5" fill="#ADD1B2" rx="11" ry="11" style="stroke: #A80036; stroke-width: 1.0;"/><path d="M1072.4688,55.1406 Q1071.8906,55.4375 1071.25,55.5781 Q1070.6094,55.7344 1069.9063,55.7344 Q1067.4063,55.7344 1066.0781,54.0938 Q1064.7656,52.4375 1064.7656,49.3125 Q1064.7656,46.1875 1066.0781,44.5313 Q1067.4063,42.875 1069.9063,42.875 Q1070.6094,42.875 1071.25,43.0313 Q1071.9063,43.1875 1072.4688,43.4844 L1072.4688,46.2031 Q1071.8438,45.625 1071.25,45.3594 Q1070.6563,45.0781 1070.0313,45.0781 Q1068.6875,45.0781 1068,46.1563 Q1067.3125,47.2188 1067.3125,49.3125 Q1067.3125,51.4063 1068,52.4844 Q1068.6875,53.5469 1070.0313,53.5469 Q1070.6563,53.5469 1071.25,53.2813 Q1071.8438,53 1072.4688,52.4219 L1072.4688,55.1406 Z "/><text fill="#000000" font-family="sans-serif" font-size="12" lengthAdjust="spacingAndGlyphs" textLength="48" x="1083.5" y="53.6543">Camera</text><line style="stroke: #A80036; stroke-width: 1.5;" x1="1055.5" x2="1133.5" y1="65.5" y2="65.5"/><line style="stroke: #A80036; stroke-width: 1.5;" x1="1055.5" x2="1133.5" y1="73.5" y2="73.5"/><!--class SceneDescriptorParser--><rect fill="#FEFECE" filter="url(#f1t7at0p9odasi)" height="48" id="SceneDescriptorParser" style="stroke: #A80036; stroke-width: 1.5;" width="177" x="6" y="33.5"/><ellipse cx="21" cy="49.5" fill="#ADD1B2" rx="11" ry="11" style="stroke: #A80036; stroke-width: 1.0;"/><path d="M23.9688,55.1406 Q23.3906,55.4375 22.75,55.5781 Q22.1094,55.7344 21.4063,55.7344 Q18.9063,55.7344 17.5781,54.0938 Q16.2656,52.4375 16.2656,49.3125 Q16.2656,46.1875 17.5781,44.5313 Q18.9063,42.875 21.4063,42.875 Q22.1094,42.875 22.75,43.0313 Q23.4063,43.1875 23.9688,43.4844 L23.9688,46.2031 Q23.3438,45.625 22.75,45.3594 Q22.1563,45.0781 21.5313,45.0781 Q20.1875,45.0781 19.5,46.1563 Q18.8125,47.2188 18.8125,49.3125 Q18.8125,51.4063 19.5,52.4844 Q20.1875,53.5469 21.5313,53.5469 Q22.1563,53.5469 22.75,53.2813 Q23.3438,53 23.9688,52.4219 L23.9688,55.1406 Z "/><text fill="#000000" font-family="sans-serif" font-size="12" lengthAdjust="spacingAndGlyphs" textLength="145" x="35" y="53.6543">SceneDescriptorParser</text><line style="stroke: #A80036; stroke-width: 1.5;" x1="7" x2="182" y1="65.5" y2="65.5"/><line style="stroke: #A80036; stroke-width: 1.5;" x1="7" x2="182" y1="73.5" y2="73.5"/><!--class WorldCreator--><rect fill="#FEFECE" filter="url(#f1t7at0p9odasi)" height="48" id="WorldCreator" style="stroke: #A80036; stroke-width: 1.5;" width="114" x="218.5" y="33.5"/><ellipse cx="233.5" cy="49.5" fill="#ADD1B2" rx="11" ry="11" style="stroke: #A80036; stroke-width: 1.0;"/><path d="M236.4688,55.1406 Q235.8906,55.4375 235.25,55.5781 Q234.6094,55.7344 233.9063,55.7344 Q231.4063,55.7344 230.0781,54.0938 Q228.7656,52.4375 228.7656,49.3125 Q228.7656,46.1875 230.0781,44.5313 Q231.4063,42.875 233.9063,42.875 Q234.6094,42.875 235.25,43.0313 Q235.9063,43.1875 236.4688,43.4844 L236.4688,46.2031 Q235.8438,45.625 235.25,45.3594 Q234.6563,45.0781 234.0313,45.0781 Q232.6875,45.0781 232,46.1563 Q231.3125,47.2188 231.3125,49.3125 Q231.3125,51.4063 232,52.4844 Q232.6875,53.5469 234.0313,53.5469 Q234.6563,53.5469 235.25,53.2813 Q235.8438,53 236.4688,52.4219 L236.4688,55.1406 Z "/><text fill="#000000" font-family="sans-serif" font-size="12" lengthAdjust="spacingAndGlyphs" textLength="82" x="247.5" y="53.6543">WorldCreator</text><line style="stroke: #A80036; stroke-width: 1.5;" x1="219.5" x2="331.5" y1="65.5" y2="65.5"/><line style="stroke: #A80036; stroke-width: 1.5;" x1="219.5" x2="331.5" y1="73.5" y2="73.5"/><!--class CommandLineParser--><rect fill="#FEFECE" filter="url(#f1t7at0p9odasi)" height="48" id="CommandLineParser" style="stroke: #A80036; stroke-width: 1.5;" width="160" x="14.5" y="180"/><ellipse cx="29.5" cy="196" fill="#ADD1B2" rx="11" ry="11" style="stroke: #A80036; stroke-width: 1.0;"/><path d="M32.4688,201.6406 Q31.8906,201.9375 31.25,202.0781 Q30.6094,202.2344 29.9063,202.2344 Q27.4063,202.2344 26.0781,200.5938 Q24.7656,198.9375 24.7656,195.8125 Q24.7656,192.6875 26.0781,191.0313 Q27.4063,189.375 29.9063,189.375 Q30.6094,189.375 31.25,189.5313 Q31.9063,189.6875 32.4688,189.9844 L32.4688,192.7031 Q31.8438,192.125 31.25,191.8594 Q30.6563,191.5781 30.0313,191.5781 Q28.6875,191.5781 28,192.6563 Q27.3125,193.7188 27.3125,195.8125 Q27.3125,197.9063 28,198.9844 Q28.6875,200.0469 30.0313,200.0469 Q30.6563,200.0469 31.25,199.7813 Q31.8438,199.5 32.4688,198.9219 L32.4688,201.6406 Z "/><text fill="#000000" font-family="sans-serif" font-size="12" lengthAdjust="spacingAndGlyphs" textLength="128" x="43.5" y="200.1543">CommandLineParser</text><line style="stroke: #A80036; stroke-width: 1.5;" x1="15.5" x2="173.5" y1="212" y2="212"/><line style="stroke: #A80036; stroke-width: 1.5;" x1="15.5" x2="173.5" y1="220" y2="220"/><!--class SceneParameters--><rect fill="#FEFECE" filter="url(#f1t7at0p9odasi)" height="48" id="SceneParameters" style="stroke: #A80036; stroke-width: 1.5;" width="144" x="209.5" y="180"/><ellipse cx="224.5" cy="196" fill="#ADD1B2" rx="11" ry="11" style="stroke: #A80036; stroke-width: 1.0;"/><path d="M227.4688,201.6406 Q226.8906,201.9375 226.25,202.0781 Q225.6094,202.2344 224.9063,202.2344 Q222.4063,202.2344 221.0781,200.5938 Q219.7656,198.9375 219.7656,195.8125 Q219.7656,192.6875 221.0781,191.0313 Q222.4063,189.375 224.9063,189.375 Q225.6094,189.375 226.25,189.5313 Q226.9063,189.6875 227.4688,189.9844 L227.4688,192.7031 Q226.8438,192.125 226.25,191.8594 Q225.6563,191.5781 225.0313,191.5781 Q223.6875,191.5781 223,192.6563 Q222.3125,193.7188 222.3125,195.8125 Q222.3125,197.9063 223,198.9844 Q223.6875,200.0469 225.0313,200.0469 Q225.6563,200.0469 226.25,199.7813 Q226.8438,199.5 227.4688,198.9219 L227.4688,201.6406 Z "/><text fill="#000000" font-family="sans-serif" font-size="12" lengthAdjust="spacingAndGlyphs" textLength="112" x="238.5" y="200.1543">SceneParameters</text><line style="stroke: #A80036; stroke-width: 1.5;" x1="210.5" x2="352.5" y1="212" y2="212"/><line style="stroke: #A80036; stroke-width: 1.5;" x1="210.5" x2="352.5" y1="220" y2="220"/><!--link World to Object--><path d="M517.81,166.02 C549.61,147.01 586.63,123.69 616.91,103.63 " fill="none" id="World-Object" style="stroke: #A80036; stroke-width: 1.0;"/><polygon fill="#FFFFFF" points="506.35,172.81,513.551,173.1924,516.6735,166.6924,509.4725,166.31,506.35,172.81" style="stroke: #A80036; stroke-width: 1.0;"/><!--link Object to World--><path d="M599.48,99.32 C564.25,120.61 523.66,146.42 493.17,166.96 " fill="none" id="Object-World" style="stroke: #A80036; stroke-width: 1.0;"/><polygon fill="none" points="596.04,93.22,616.8,88.97,603.22,105.24,596.04,93.22" style="stroke: #A80036; stroke-width: 1.0;"/><!--link Object to Mesh--><path d="M640.57,124.91 C633,139.31 625.27,154.01 618.58,166.72 " fill="none" id="Object-Mesh" style="stroke: #A80036; stroke-width: 1.0;"/><polygon fill="none" points="634.48,121.46,649.98,107.02,646.87,127.98,634.48,121.46" style="stroke: #A80036; stroke-width: 1.0;"/><!--link Object to Sphere--><path d="M710.43,124.91 C718,139.31 725.73,154.01 732.42,166.72 " fill="none" id="Object-Sphere" style="stroke: #A80036; stroke-width: 1.0;"/><polygon fill="none" points="704.13,127.98,701.02,107.02,716.52,121.46,704.13,127.98" style="stroke: #A80036; stroke-width: 1.0;"/><!--link Material to Lambertian--><path d="M843.22,249.16 C826.4,266.32 807.57,285.53 792.44,300.97 " fill="none" id="Material-Lambertian" style="stroke: #A80036; stroke-width: 1.0;"/><polygon fill="none" points="838.35,244.13,857.35,234.74,848.35,253.93,838.35,244.13" style="stroke: #A80036; stroke-width: 1.0;"/><!--link Material to Metal--><path d="M886.5,254.95 C886.5,270.55 886.5,287.25 886.5,300.97 " fill="none" id="Material-Metal" style="stroke: #A80036; stroke-width: 1.0;"/><polygon fill="none" points="879.5,254.74,886.5,234.74,893.5,254.74,879.5,254.74" style="stroke: #A80036; stroke-width: 1.0;"/><!--link Material to Dielectric--><path d="M927.91,249.42 C943.85,266.52 961.65,285.61 975.97,300.97 " fill="none" id="Material-Dielectric" style="stroke: #A80036; stroke-width: 1.0;"/><polygon fill="none" points="922.75,254.14,914.23,234.74,932.99,244.6,922.75,254.14" style="stroke: #A80036; stroke-width: 1.0;"/><!--link Object to Material--><path d="M745.3,106.3 C778.47,129.02 816.99,155.4 845.41,174.86 " fill="none" id="Object-Material" style="stroke: #A80036; stroke-width: 1.0; stroke-dasharray: 7.0,7.0;"/><polygon fill="#A80036" points="734.28,98.75,736.9722,105.4397,744.1827,105.5276,741.4906,98.8379,734.28,98.75" style="stroke: #A80036; stroke-width: 1.0;"/><!--link Mesh to GenericObject--><path d="M602.47,246.37 C603.92,266.64 605.62,290.28 606.84,307.33 " fill="none" id="Mesh-GenericObject" style="stroke: #A80036; stroke-width: 1.0; stroke-dasharray: 7.0,7.0;"/><polygon fill="#A80036" points="602.1,241.3,598.7533,250.5628,602.4573,246.2872,606.7328,249.9912,602.1,241.3" style="stroke: #A80036; stroke-width: 1.0;"/><!--link Sphere to GenericObject--><path d="M706.11,244.83 C682.64,265.43 654.82,289.85 634.9,307.33 " fill="none" id="Sphere-GenericObject" style="stroke: #A80036; stroke-width: 1.0; stroke-dasharray: 7.0,7.0;"/><polygon fill="#A80036" points="710.14,241.3,700.732,244.2137,706.3762,244.5915,705.9984,250.2357,710.14,241.3" style="stroke: #A80036; stroke-width: 1.0;"/><!--link Lambertian to GenericMaterial--><path d="M799.7,365.61 C819.38,383.61 843.27,405.46 860.99,421.67 " fill="none" id="Lambertian-GenericMaterial" style="stroke: #A80036; stroke-width: 1.0; stroke-dasharray: 7.0,7.0;"/><polygon fill="#A80036" points="795.82,362.06,799.761,371.086,799.5093,365.4347,805.1606,365.1831,795.82,362.06" style="stroke: #A80036; stroke-width: 1.0;"/><!--link Metal to GenericMaterial--><path d="M886.5,367.42 C886.5,385.06 886.5,406 886.5,421.67 " fill="none" id="Metal-GenericMaterial" style="stroke: #A80036; stroke-width: 1.0; stroke-dasharray: 7.0,7.0;"/><polygon fill="#A80036" points="886.5,362.06,882.5,371.06,886.5,367.06,890.5,371.06,886.5,362.06" style="stroke: #A80036; stroke-width: 1.0;"/><!--link Dielectric to GenericMaterial--><path d="M969.07,365.61 C950.34,383.61 927.63,405.46 910.76,421.67 " fill="none" id="Dielectric-GenericMaterial" style="stroke: #A80036; stroke-width: 1.0; stroke-dasharray: 7.0,7.0;"/><polygon fill="#A80036" points="972.76,362.06,963.4982,365.4095,969.1539,365.5235,969.0399,371.1793,972.76,362.06" style="stroke: #A80036; stroke-width: 1.0;"/><!--link Object to Renderer--><path d="M739.3,80.5 C811.25,105.32 928.62,145.79 1008.59,173.37 " fill="none" id="Object-Renderer" style="stroke: #A80036; stroke-width: 1.0; stroke-dasharray: 7.0,7.0;"/><polygon fill="#A80036" points="734.2,78.74,741.4069,85.4527,738.9275,80.3682,744.012,77.8888,734.2,78.74" style="stroke: #A80036; stroke-width: 1.0;"/><!--link Camera to Renderer--><path d="M1094.5,86.86 C1094.5,111.81 1094.5,148 1094.5,173.33 " fill="none" id="Camera-Renderer" style="stroke: #A80036; stroke-width: 1.0; stroke-dasharray: 7.0,7.0;"/><polygon fill="#A80036" points="1094.5,81.72,1090.5,90.72,1094.5,86.72,1098.5,90.72,1094.5,81.72" style="stroke: #A80036; stroke-width: 1.0;"/><!--link SceneDescriptorParser to WorldCreator--><!--link SceneDescriptorParser to CommandLineParser--><!--link CommandLineParser to SceneParameters--><!--
@startuml
abstract Object {
 +hit() : bool
 +getBBox() : bool
 Material* material 
 AABB* bbox
}
class World {
 +hit() : bool
 +getBBox() : bool
}
class Mesh{
 +hit() : bool
 +getBBox() : bool 
}
class Sphere{
 +hit() : bool
 +getBBox() : bool 
}

World o- - Object
Object <|- - World
Object <|- - Mesh
Object <|- - Sphere

abstract Material {
 +scatter()
}
class Lambertian {
 +scatter()
}
class Metal {
 +scatter()
}
class Dielectric {
 +scatter()
}

Material <|- - Lambertian
Material <|- - Metal
Material <|- - Dielectric

Object *.. Material

class GenericObject

Mesh <.. GenericObject
Sphere <.. GenericObject

class GenericMaterial

Lambertian <.. GenericMaterial
Metal <.. GenericMaterial
Dielectric <.. GenericMaterial

class Renderer {
 +render(in World* world, Camera* camera)
}

Object <.. Renderer

class Camera

Camera <.. Renderer

class SceneDescriptorParser

class WorldCreator

class CommandLineParser

class SceneParameters

@enduml

PlantUML version 1.2018.13(Mon Nov 26 18:11:51 CET 2018)
(GPL source distribution)
Java Runtime: OpenJDK Runtime Environment
JVM: OpenJDK 64-Bit Server VM
Java Version: 14.0.2+12-Ubuntu-120.04
Operating System: Linux
OS Version: 5.4.0-58-generic
Default Encoding: UTF-8
Language: en
Country: US
--></g></svg>